<?xml version="1.0" encoding="UTF-8" standalone="no"?>
<!DOCTYPE svg PUBLIC "-//W3C//DTD SVG 1.1//EN"
 "http://www.w3.org/Graphics/SVG/1.1/DTD/svg11.dtd">
<!-- Generated by graphviz version 13.1.1 (20250719.2154)
 -->
<!-- Title: G Pages: 1 -->
<svg width="12693pt" height="260pt"
 viewBox="0.00 0.00 12693.00 260.00" xmlns="http://www.w3.org/2000/svg" xmlns:xlink="http://www.w3.org/1999/xlink">
<g id="graph0" class="graph" transform="scale(2.77778 2.77778) rotate(0) translate(4 89.5)">
<title>G</title>
<polygon fill="white" stroke="none" points="-4,4 -4,-89.5 4565.5,-89.5 4565.5,4 -4,4"/>
<!-- 2537546149296 -->
<g id="node1" class="node">
<title>2537546149296</title>
<polygon fill="none" stroke="black" points="0,-0.5 0,-85 347.75,-85 347.75,-0.5 0,-0.5"/>
<polygon fill="black" stroke="none" points="0,-0.5 0,-85 347.75,-85 347.75,-0.5 0,-0.5"/>
<polygon fill="black" stroke="none" points="2,-42.25 2,-83 345.75,-83 345.75,-42.25 2,-42.25"/>
<polygon fill="none" stroke="black" points="2,-42.25 2,-83 345.75,-83 345.75,-42.25 2,-42.25"/>
<text xml:space="preserve" text-anchor="start" x="105.62" y="-57.8" font-family="Helvetica,sans-Serif" font-weight="bold" font-size="16.00" fill="white">Dense_64</text>
<text xml:space="preserve" text-anchor="start" x="180.62" y="-57.8" font-family="Helvetica,sans-Serif" font-size="16.00" fill="white"> (Dense)</text>
<polygon fill="white" stroke="none" points="2,-2.5 2,-40.25 167.25,-40.25 167.25,-2.5 2,-2.5"/>
<polygon fill="none" stroke="black" points="2,-2.5 2,-40.25 167.25,-40.25 167.25,-2.5 2,-2.5"/>
<text xml:space="preserve" text-anchor="start" x="13" y="-16.95" font-family="Helvetica,sans-Serif" font-size="14.00">Input shape: </text>
<text xml:space="preserve" text-anchor="start" x="91" y="-16.95" font-family="Helvetica,sans-Serif" font-weight="bold" font-size="14.00">(None, 20)</text>
<polygon fill="white" stroke="none" points="169.25,-2.5 169.25,-40.25 345.75,-40.25 345.75,-2.5 169.25,-2.5"/>
<polygon fill="none" stroke="black" points="169.25,-2.5 169.25,-40.25 345.75,-40.25 345.75,-2.5 169.25,-2.5"/>
<text xml:space="preserve" text-anchor="start" x="180.25" y="-16.95" font-family="Helvetica,sans-Serif" font-size="14.00">Output shape: </text>
<text xml:space="preserve" text-anchor="start" x="269.5" y="-16.95" font-family="Helvetica,sans-Serif" font-weight="bold" font-size="14.00">(None, 64)</text>
</g>
<!-- 2537546149536 -->
<g id="node2" class="node">
<title>2537546149536</title>
<polygon fill="none" stroke="black" points="383.75,-0.5 383.75,-85 731.5,-85 731.5,-0.5 383.75,-0.5"/>
<polygon fill="black" stroke="none" points="383.75,-0.5 383.75,-85 731.5,-85 731.5,-0.5 383.75,-0.5"/>
<polygon fill="black" stroke="none" points="385.75,-42.25 385.75,-83 729.5,-83 729.5,-42.25 385.75,-42.25"/>
<polygon fill="none" stroke="black" points="385.75,-42.25 385.75,-83 729.5,-83 729.5,-42.25 385.75,-42.25"/>
<text xml:space="preserve" text-anchor="start" x="428.25" y="-57.8" font-family="Helvetica,sans-Serif" font-weight="bold" font-size="16.00" fill="white">BatchNorm_1</text>
<text xml:space="preserve" text-anchor="start" x="531.75" y="-57.8" font-family="Helvetica,sans-Serif" font-size="16.00" fill="white"> (BatchNormalization)</text>
<polygon fill="white" stroke="none" points="385.75,-2.5 385.75,-40.25 551,-40.25 551,-2.5 385.75,-2.5"/>
<polygon fill="none" stroke="black" points="385.75,-2.5 385.75,-40.25 551,-40.25 551,-2.5 385.75,-2.5"/>
<text xml:space="preserve" text-anchor="start" x="396.75" y="-16.95" font-family="Helvetica,sans-Serif" font-size="14.00">Input shape: </text>
<text xml:space="preserve" text-anchor="start" x="474.75" y="-16.95" font-family="Helvetica,sans-Serif" font-weight="bold" font-size="14.00">(None, 64)</text>
<polygon fill="white" stroke="none" points="553,-2.5 553,-40.25 729.5,-40.25 729.5,-2.5 553,-2.5"/>
<polygon fill="none" stroke="black" points="553,-2.5 553,-40.25 729.5,-40.25 729.5,-2.5 553,-2.5"/>
<text xml:space="preserve" text-anchor="start" x="564" y="-16.95" font-family="Helvetica,sans-Serif" font-size="14.00">Output shape: </text>
<text xml:space="preserve" text-anchor="start" x="653.25" y="-16.95" font-family="Helvetica,sans-Serif" font-weight="bold" font-size="14.00">(None, 64)</text>
</g>
<!-- 2537546149296&#45;&gt;2537546149536 -->
<g id="edge1" class="edge">
<title>2537546149296&#45;&gt;2537546149536</title>
<path fill="none" stroke="black" stroke-width="2" d="M348.07,-42.75C348.07,-42.75 370.5,-42.75 370.5,-42.75"/>
<polygon fill="black" stroke="black" stroke-width="2" points="370.5,-46.25 380.5,-42.75 370.5,-39.25 370.5,-46.25"/>
</g>
<!-- 2537546149872 -->
<g id="node3" class="node">
<title>2537546149872</title>
<polygon fill="none" stroke="black" points="767.5,-0.5 767.5,-85 1115.25,-85 1115.25,-0.5 767.5,-0.5"/>
<polygon fill="black" stroke="none" points="767.5,-0.5 767.5,-85 1115.25,-85 1115.25,-0.5 767.5,-0.5"/>
<polygon fill="black" stroke="none" points="769.5,-42.25 769.5,-83 1113.25,-83 1113.25,-42.25 769.5,-42.25"/>
<polygon fill="none" stroke="black" points="769.5,-42.25 769.5,-83 1113.25,-83 1113.25,-42.25 769.5,-42.25"/>
<text xml:space="preserve" text-anchor="start" x="865.62" y="-57.8" font-family="Helvetica,sans-Serif" font-weight="bold" font-size="16.00" fill="white">Dropout_1</text>
<text xml:space="preserve" text-anchor="start" x="945.12" y="-57.8" font-family="Helvetica,sans-Serif" font-size="16.00" fill="white"> (Dropout)</text>
<polygon fill="white" stroke="none" points="769.5,-2.5 769.5,-40.25 934.75,-40.25 934.75,-2.5 769.5,-2.5"/>
<polygon fill="none" stroke="black" points="769.5,-2.5 769.5,-40.25 934.75,-40.25 934.75,-2.5 769.5,-2.5"/>
<text xml:space="preserve" text-anchor="start" x="780.5" y="-16.95" font-family="Helvetica,sans-Serif" font-size="14.00">Input shape: </text>
<text xml:space="preserve" text-anchor="start" x="858.5" y="-16.95" font-family="Helvetica,sans-Serif" font-weight="bold" font-size="14.00">(None, 64)</text>
<polygon fill="white" stroke="none" points="936.75,-2.5 936.75,-40.25 1113.25,-40.25 1113.25,-2.5 936.75,-2.5"/>
<polygon fill="none" stroke="black" points="936.75,-2.5 936.75,-40.25 1113.25,-40.25 1113.25,-2.5 936.75,-2.5"/>
<text xml:space="preserve" text-anchor="start" x="947.75" y="-16.95" font-family="Helvetica,sans-Serif" font-size="14.00">Output shape: </text>
<text xml:space="preserve" text-anchor="start" x="1037" y="-16.95" font-family="Helvetica,sans-Serif" font-weight="bold" font-size="14.00">(None, 64)</text>
</g>
<!-- 2537546149536&#45;&gt;2537546149872 -->
<g id="edge2" class="edge">
<title>2537546149536&#45;&gt;2537546149872</title>
<path fill="none" stroke="black" stroke-width="2" d="M731.82,-42.75C731.82,-42.75 754.25,-42.75 754.25,-42.75"/>
<polygon fill="black" stroke="black" stroke-width="2" points="754.25,-46.25 764.25,-42.75 754.25,-39.25 754.25,-46.25"/>
</g>
<!-- 2537541694384 -->
<g id="node4" class="node">
<title>2537541694384</title>
<polygon fill="none" stroke="black" points="1151.25,-0.5 1151.25,-85 1499,-85 1499,-0.5 1151.25,-0.5"/>
<polygon fill="black" stroke="none" points="1151.25,-0.5 1151.25,-85 1499,-85 1499,-0.5 1151.25,-0.5"/>
<polygon fill="black" stroke="none" points="1153.25,-42.25 1153.25,-83 1497,-83 1497,-42.25 1153.25,-42.25"/>
<polygon fill="none" stroke="black" points="1153.25,-42.25 1153.25,-83 1497,-83 1497,-42.25 1153.25,-42.25"/>
<text xml:space="preserve" text-anchor="start" x="1256.88" y="-57.8" font-family="Helvetica,sans-Serif" font-weight="bold" font-size="16.00" fill="white">Dense_32</text>
<text xml:space="preserve" text-anchor="start" x="1331.88" y="-57.8" font-family="Helvetica,sans-Serif" font-size="16.00" fill="white"> (Dense)</text>
<polygon fill="white" stroke="none" points="1153.25,-2.5 1153.25,-40.25 1318.5,-40.25 1318.5,-2.5 1153.25,-2.5"/>
<polygon fill="none" stroke="black" points="1153.25,-2.5 1153.25,-40.25 1318.5,-40.25 1318.5,-2.5 1153.25,-2.5"/>
<text xml:space="preserve" text-anchor="start" x="1164.25" y="-16.95" font-family="Helvetica,sans-Serif" font-size="14.00">Input shape: </text>
<text xml:space="preserve" text-anchor="start" x="1242.25" y="-16.95" font-family="Helvetica,sans-Serif" font-weight="bold" font-size="14.00">(None, 64)</text>
<polygon fill="white" stroke="none" points="1320.5,-2.5 1320.5,-40.25 1497,-40.25 1497,-2.5 1320.5,-2.5"/>
<polygon fill="none" stroke="black" points="1320.5,-2.5 1320.5,-40.25 1497,-40.25 1497,-2.5 1320.5,-2.5"/>
<text xml:space="preserve" text-anchor="start" x="1331.5" y="-16.95" font-family="Helvetica,sans-Serif" font-size="14.00">Output shape: </text>
<text xml:space="preserve" text-anchor="start" x="1420.75" y="-16.95" font-family="Helvetica,sans-Serif" font-weight="bold" font-size="14.00">(None, 32)</text>
</g>
<!-- 2537546149872&#45;&gt;2537541694384 -->
<g id="edge3" class="edge">
<title>2537546149872&#45;&gt;2537541694384</title>
<path fill="none" stroke="black" stroke-width="2" d="M1115.57,-42.75C1115.57,-42.75 1138,-42.75 1138,-42.75"/>
<polygon fill="black" stroke="black" stroke-width="2" points="1138,-46.25 1148,-42.75 1138,-39.25 1138,-46.25"/>
</g>
<!-- 2537545408464 -->
<g id="node5" class="node">
<title>2537545408464</title>
<polygon fill="none" stroke="black" points="1535,-0.5 1535,-85 1882.75,-85 1882.75,-0.5 1535,-0.5"/>
<polygon fill="black" stroke="none" points="1535,-0.5 1535,-85 1882.75,-85 1882.75,-0.5 1535,-0.5"/>
<polygon fill="black" stroke="none" points="1537,-42.25 1537,-83 1880.75,-83 1880.75,-42.25 1537,-42.25"/>
<polygon fill="none" stroke="black" points="1537,-42.25 1537,-83 1880.75,-83 1880.75,-42.25 1537,-42.25"/>
<text xml:space="preserve" text-anchor="start" x="1579.5" y="-57.8" font-family="Helvetica,sans-Serif" font-weight="bold" font-size="16.00" fill="white">BatchNorm_2</text>
<text xml:space="preserve" text-anchor="start" x="1683" y="-57.8" font-family="Helvetica,sans-Serif" font-size="16.00" fill="white"> (BatchNormalization)</text>
<polygon fill="white" stroke="none" points="1537,-2.5 1537,-40.25 1702.25,-40.25 1702.25,-2.5 1537,-2.5"/>
<polygon fill="none" stroke="black" points="1537,-2.5 1537,-40.25 1702.25,-40.25 1702.25,-2.5 1537,-2.5"/>
<text xml:space="preserve" text-anchor="start" x="1548" y="-16.95" font-family="Helvetica,sans-Serif" font-size="14.00">Input shape: </text>
<text xml:space="preserve" text-anchor="start" x="1626" y="-16.95" font-family="Helvetica,sans-Serif" font-weight="bold" font-size="14.00">(None, 32)</text>
<polygon fill="white" stroke="none" points="1704.25,-2.5 1704.25,-40.25 1880.75,-40.25 1880.75,-2.5 1704.25,-2.5"/>
<polygon fill="none" stroke="black" points="1704.25,-2.5 1704.25,-40.25 1880.75,-40.25 1880.75,-2.5 1704.25,-2.5"/>
<text xml:space="preserve" text-anchor="start" x="1715.25" y="-16.95" font-family="Helvetica,sans-Serif" font-size="14.00">Output shape: </text>
<text xml:space="preserve" text-anchor="start" x="1804.5" y="-16.95" font-family="Helvetica,sans-Serif" font-weight="bold" font-size="14.00">(None, 32)</text>
</g>
<!-- 2537541694384&#45;&gt;2537545408464 -->
<g id="edge4" class="edge">
<title>2537541694384&#45;&gt;2537545408464</title>
<path fill="none" stroke="black" stroke-width="2" d="M1499.32,-42.75C1499.32,-42.75 1521.75,-42.75 1521.75,-42.75"/>
<polygon fill="black" stroke="black" stroke-width="2" points="1521.75,-46.25 1531.75,-42.75 1521.75,-39.25 1521.75,-46.25"/>
</g>
<!-- 2536572260608 -->
<g id="node6" class="node">
<title>2536572260608</title>
<polygon fill="none" stroke="black" points="1918.75,-0.5 1918.75,-85 2266.5,-85 2266.5,-0.5 1918.75,-0.5"/>
<polygon fill="black" stroke="none" points="1918.75,-0.5 1918.75,-85 2266.5,-85 2266.5,-0.5 1918.75,-0.5"/>
<polygon fill="black" stroke="none" points="1920.75,-42.25 1920.75,-83 2264.5,-83 2264.5,-42.25 1920.75,-42.25"/>
<polygon fill="none" stroke="black" points="1920.75,-42.25 1920.75,-83 2264.5,-83 2264.5,-42.25 1920.75,-42.25"/>
<text xml:space="preserve" text-anchor="start" x="2016.88" y="-57.8" font-family="Helvetica,sans-Serif" font-weight="bold" font-size="16.00" fill="white">Dropout_2</text>
<text xml:space="preserve" text-anchor="start" x="2096.38" y="-57.8" font-family="Helvetica,sans-Serif" font-size="16.00" fill="white"> (Dropout)</text>
<polygon fill="white" stroke="none" points="1920.75,-2.5 1920.75,-40.25 2086,-40.25 2086,-2.5 1920.75,-2.5"/>
<polygon fill="none" stroke="black" points="1920.75,-2.5 1920.75,-40.25 2086,-40.25 2086,-2.5 1920.75,-2.5"/>
<text xml:space="preserve" text-anchor="start" x="1931.75" y="-16.95" font-family="Helvetica,sans-Serif" font-size="14.00">Input shape: </text>
<text xml:space="preserve" text-anchor="start" x="2009.75" y="-16.95" font-family="Helvetica,sans-Serif" font-weight="bold" font-size="14.00">(None, 32)</text>
<polygon fill="white" stroke="none" points="2088,-2.5 2088,-40.25 2264.5,-40.25 2264.5,-2.5 2088,-2.5"/>
<polygon fill="none" stroke="black" points="2088,-2.5 2088,-40.25 2264.5,-40.25 2264.5,-2.5 2088,-2.5"/>
<text xml:space="preserve" text-anchor="start" x="2099" y="-16.95" font-family="Helvetica,sans-Serif" font-size="14.00">Output shape: </text>
<text xml:space="preserve" text-anchor="start" x="2188.25" y="-16.95" font-family="Helvetica,sans-Serif" font-weight="bold" font-size="14.00">(None, 32)</text>
</g>
<!-- 2537545408464&#45;&gt;2536572260608 -->
<g id="edge5" class="edge">
<title>2537545408464&#45;&gt;2536572260608</title>
<path fill="none" stroke="black" stroke-width="2" d="M1883.07,-42.75C1883.07,-42.75 1905.5,-42.75 1905.5,-42.75"/>
<polygon fill="black" stroke="black" stroke-width="2" points="1905.5,-46.25 1915.5,-42.75 1905.5,-39.25 1905.5,-46.25"/>
</g>
<!-- 2537546148096 -->
<g id="node7" class="node">
<title>2537546148096</title>
<polygon fill="none" stroke="black" points="2302.5,-0.5 2302.5,-85 2650.25,-85 2650.25,-0.5 2302.5,-0.5"/>
<polygon fill="black" stroke="none" points="2302.5,-0.5 2302.5,-85 2650.25,-85 2650.25,-0.5 2302.5,-0.5"/>
<polygon fill="black" stroke="none" points="2304.5,-42.25 2304.5,-83 2648.25,-83 2648.25,-42.25 2304.5,-42.25"/>
<polygon fill="none" stroke="black" points="2304.5,-42.25 2304.5,-83 2648.25,-83 2648.25,-42.25 2304.5,-42.25"/>
<text xml:space="preserve" text-anchor="start" x="2408.12" y="-57.8" font-family="Helvetica,sans-Serif" font-weight="bold" font-size="16.00" fill="white">Dense_16</text>
<text xml:space="preserve" text-anchor="start" x="2483.12" y="-57.8" font-family="Helvetica,sans-Serif" font-size="16.00" fill="white"> (Dense)</text>
<polygon fill="white" stroke="none" points="2304.5,-2.5 2304.5,-40.25 2469.75,-40.25 2469.75,-2.5 2304.5,-2.5"/>
<polygon fill="none" stroke="black" points="2304.5,-2.5 2304.5,-40.25 2469.75,-40.25 2469.75,-2.5 2304.5,-2.5"/>
<text xml:space="preserve" text-anchor="start" x="2315.5" y="-16.95" font-family="Helvetica,sans-Serif" font-size="14.00">Input shape: </text>
<text xml:space="preserve" text-anchor="start" x="2393.5" y="-16.95" font-family="Helvetica,sans-Serif" font-weight="bold" font-size="14.00">(None, 32)</text>
<polygon fill="white" stroke="none" points="2471.75,-2.5 2471.75,-40.25 2648.25,-40.25 2648.25,-2.5 2471.75,-2.5"/>
<polygon fill="none" stroke="black" points="2471.75,-2.5 2471.75,-40.25 2648.25,-40.25 2648.25,-2.5 2471.75,-2.5"/>
<text xml:space="preserve" text-anchor="start" x="2482.75" y="-16.95" font-family="Helvetica,sans-Serif" font-size="14.00">Output shape: </text>
<text xml:space="preserve" text-anchor="start" x="2572" y="-16.95" font-family="Helvetica,sans-Serif" font-weight="bold" font-size="14.00">(None, 16)</text>
</g>
<!-- 2536572260608&#45;&gt;2537546148096 -->
<g id="edge6" class="edge">
<title>2536572260608&#45;&gt;2537546148096</title>
<path fill="none" stroke="black" stroke-width="2" d="M2266.82,-42.75C2266.82,-42.75 2289.25,-42.75 2289.25,-42.75"/>
<polygon fill="black" stroke="black" stroke-width="2" points="2289.25,-46.25 2299.25,-42.75 2289.25,-39.25 2289.25,-46.25"/>
</g>
<!-- 2537546151408 -->
<g id="node8" class="node">
<title>2537546151408</title>
<polygon fill="none" stroke="black" points="2686.25,-0.5 2686.25,-85 3034,-85 3034,-0.5 2686.25,-0.5"/>
<polygon fill="black" stroke="none" points="2686.25,-0.5 2686.25,-85 3034,-85 3034,-0.5 2686.25,-0.5"/>
<polygon fill="black" stroke="none" points="2688.25,-42.25 2688.25,-83 3032,-83 3032,-42.25 2688.25,-42.25"/>
<polygon fill="none" stroke="black" points="2688.25,-42.25 2688.25,-83 3032,-83 3032,-42.25 2688.25,-42.25"/>
<text xml:space="preserve" text-anchor="start" x="2782.88" y="-57.8" font-family="Helvetica,sans-Serif" font-weight="bold" font-size="16.00" fill="white">Dense_32_2</text>
<text xml:space="preserve" text-anchor="start" x="2875.88" y="-57.8" font-family="Helvetica,sans-Serif" font-size="16.00" fill="white"> (Dense)</text>
<polygon fill="white" stroke="none" points="2688.25,-2.5 2688.25,-40.25 2853.5,-40.25 2853.5,-2.5 2688.25,-2.5"/>
<polygon fill="none" stroke="black" points="2688.25,-2.5 2688.25,-40.25 2853.5,-40.25 2853.5,-2.5 2688.25,-2.5"/>
<text xml:space="preserve" text-anchor="start" x="2699.25" y="-16.95" font-family="Helvetica,sans-Serif" font-size="14.00">Input shape: </text>
<text xml:space="preserve" text-anchor="start" x="2777.25" y="-16.95" font-family="Helvetica,sans-Serif" font-weight="bold" font-size="14.00">(None, 16)</text>
<polygon fill="white" stroke="none" points="2855.5,-2.5 2855.5,-40.25 3032,-40.25 3032,-2.5 2855.5,-2.5"/>
<polygon fill="none" stroke="black" points="2855.5,-2.5 2855.5,-40.25 3032,-40.25 3032,-2.5 2855.5,-2.5"/>
<text xml:space="preserve" text-anchor="start" x="2866.5" y="-16.95" font-family="Helvetica,sans-Serif" font-size="14.00">Output shape: </text>
<text xml:space="preserve" text-anchor="start" x="2955.75" y="-16.95" font-family="Helvetica,sans-Serif" font-weight="bold" font-size="14.00">(None, 32)</text>
</g>
<!-- 2537546148096&#45;&gt;2537546151408 -->
<g id="edge7" class="edge">
<title>2537546148096&#45;&gt;2537546151408</title>
<path fill="none" stroke="black" stroke-width="2" d="M2650.57,-42.75C2650.57,-42.75 2673,-42.75 2673,-42.75"/>
<polygon fill="black" stroke="black" stroke-width="2" points="2673,-46.25 2683,-42.75 2673,-39.25 2673,-46.25"/>
</g>
<!-- 2537546151696 -->
<g id="node9" class="node">
<title>2537546151696</title>
<polygon fill="none" stroke="black" points="3070,-0.5 3070,-85 3417.75,-85 3417.75,-0.5 3070,-0.5"/>
<polygon fill="black" stroke="none" points="3070,-0.5 3070,-85 3417.75,-85 3417.75,-0.5 3070,-0.5"/>
<polygon fill="black" stroke="none" points="3072,-42.25 3072,-83 3415.75,-83 3415.75,-42.25 3072,-42.25"/>
<polygon fill="none" stroke="black" points="3072,-42.25 3072,-83 3415.75,-83 3415.75,-42.25 3072,-42.25"/>
<text xml:space="preserve" text-anchor="start" x="3114.5" y="-57.8" font-family="Helvetica,sans-Serif" font-weight="bold" font-size="16.00" fill="white">BatchNorm_3</text>
<text xml:space="preserve" text-anchor="start" x="3218" y="-57.8" font-family="Helvetica,sans-Serif" font-size="16.00" fill="white"> (BatchNormalization)</text>
<polygon fill="white" stroke="none" points="3072,-2.5 3072,-40.25 3237.25,-40.25 3237.25,-2.5 3072,-2.5"/>
<polygon fill="none" stroke="black" points="3072,-2.5 3072,-40.25 3237.25,-40.25 3237.25,-2.5 3072,-2.5"/>
<text xml:space="preserve" text-anchor="start" x="3083" y="-16.95" font-family="Helvetica,sans-Serif" font-size="14.00">Input shape: </text>
<text xml:space="preserve" text-anchor="start" x="3161" y="-16.95" font-family="Helvetica,sans-Serif" font-weight="bold" font-size="14.00">(None, 32)</text>
<polygon fill="white" stroke="none" points="3239.25,-2.5 3239.25,-40.25 3415.75,-40.25 3415.75,-2.5 3239.25,-2.5"/>
<polygon fill="none" stroke="black" points="3239.25,-2.5 3239.25,-40.25 3415.75,-40.25 3415.75,-2.5 3239.25,-2.5"/>
<text xml:space="preserve" text-anchor="start" x="3250.25" y="-16.95" font-family="Helvetica,sans-Serif" font-size="14.00">Output shape: </text>
<text xml:space="preserve" text-anchor="start" x="3339.5" y="-16.95" font-family="Helvetica,sans-Serif" font-weight="bold" font-size="14.00">(None, 32)</text>
</g>
<!-- 2537546151408&#45;&gt;2537546151696 -->
<g id="edge8" class="edge">
<title>2537546151408&#45;&gt;2537546151696</title>
<path fill="none" stroke="black" stroke-width="2" d="M3034.32,-42.75C3034.32,-42.75 3056.75,-42.75 3056.75,-42.75"/>
<polygon fill="black" stroke="black" stroke-width="2" points="3056.75,-46.25 3066.75,-42.75 3056.75,-39.25 3056.75,-46.25"/>
</g>
<!-- 2537546152320 -->
<g id="node10" class="node">
<title>2537546152320</title>
<polygon fill="none" stroke="black" points="3453.75,-0.5 3453.75,-85 3801.5,-85 3801.5,-0.5 3453.75,-0.5"/>
<polygon fill="black" stroke="none" points="3453.75,-0.5 3453.75,-85 3801.5,-85 3801.5,-0.5 3453.75,-0.5"/>
<polygon fill="black" stroke="none" points="3455.75,-42.25 3455.75,-83 3799.5,-83 3799.5,-42.25 3455.75,-42.25"/>
<polygon fill="none" stroke="black" points="3455.75,-42.25 3455.75,-83 3799.5,-83 3799.5,-42.25 3455.75,-42.25"/>
<text xml:space="preserve" text-anchor="start" x="3551.88" y="-57.8" font-family="Helvetica,sans-Serif" font-weight="bold" font-size="16.00" fill="white">Dropout_3</text>
<text xml:space="preserve" text-anchor="start" x="3631.38" y="-57.8" font-family="Helvetica,sans-Serif" font-size="16.00" fill="white"> (Dropout)</text>
<polygon fill="white" stroke="none" points="3455.75,-2.5 3455.75,-40.25 3621,-40.25 3621,-2.5 3455.75,-2.5"/>
<polygon fill="none" stroke="black" points="3455.75,-2.5 3455.75,-40.25 3621,-40.25 3621,-2.5 3455.75,-2.5"/>
<text xml:space="preserve" text-anchor="start" x="3466.75" y="-16.95" font-family="Helvetica,sans-Serif" font-size="14.00">Input shape: </text>
<text xml:space="preserve" text-anchor="start" x="3544.75" y="-16.95" font-family="Helvetica,sans-Serif" font-weight="bold" font-size="14.00">(None, 32)</text>
<polygon fill="white" stroke="none" points="3623,-2.5 3623,-40.25 3799.5,-40.25 3799.5,-2.5 3623,-2.5"/>
<polygon fill="none" stroke="black" points="3623,-2.5 3623,-40.25 3799.5,-40.25 3799.5,-2.5 3623,-2.5"/>
<text xml:space="preserve" text-anchor="start" x="3634" y="-16.95" font-family="Helvetica,sans-Serif" font-size="14.00">Output shape: </text>
<text xml:space="preserve" text-anchor="start" x="3723.25" y="-16.95" font-family="Helvetica,sans-Serif" font-weight="bold" font-size="14.00">(None, 32)</text>
</g>
<!-- 2537546151696&#45;&gt;2537546152320 -->
<g id="edge9" class="edge">
<title>2537546151696&#45;&gt;2537546152320</title>
<path fill="none" stroke="black" stroke-width="2" d="M3418.07,-42.75C3418.07,-42.75 3440.5,-42.75 3440.5,-42.75"/>
<polygon fill="black" stroke="black" stroke-width="2" points="3440.5,-46.25 3450.5,-42.75 3440.5,-39.25 3440.5,-46.25"/>
</g>
<!-- 2537546152992 -->
<g id="node11" class="node">
<title>2537546152992</title>
<polygon fill="none" stroke="black" points="3837.5,-0.5 3837.5,-85 4185.25,-85 4185.25,-0.5 3837.5,-0.5"/>
<polygon fill="black" stroke="none" points="3837.5,-0.5 3837.5,-85 4185.25,-85 4185.25,-0.5 3837.5,-0.5"/>
<polygon fill="black" stroke="none" points="3839.5,-42.25 3839.5,-83 4183.25,-83 4183.25,-42.25 3839.5,-42.25"/>
<polygon fill="none" stroke="black" points="3839.5,-42.25 3839.5,-83 4183.25,-83 4183.25,-42.25 3839.5,-42.25"/>
<text xml:space="preserve" text-anchor="start" x="3934.12" y="-57.8" font-family="Helvetica,sans-Serif" font-weight="bold" font-size="16.00" fill="white">Dense_64_2</text>
<text xml:space="preserve" text-anchor="start" x="4027.12" y="-57.8" font-family="Helvetica,sans-Serif" font-size="16.00" fill="white"> (Dense)</text>
<polygon fill="white" stroke="none" points="3839.5,-2.5 3839.5,-40.25 4004.75,-40.25 4004.75,-2.5 3839.5,-2.5"/>
<polygon fill="none" stroke="black" points="3839.5,-2.5 3839.5,-40.25 4004.75,-40.25 4004.75,-2.5 3839.5,-2.5"/>
<text xml:space="preserve" text-anchor="start" x="3850.5" y="-16.95" font-family="Helvetica,sans-Serif" font-size="14.00">Input shape: </text>
<text xml:space="preserve" text-anchor="start" x="3928.5" y="-16.95" font-family="Helvetica,sans-Serif" font-weight="bold" font-size="14.00">(None, 32)</text>
<polygon fill="white" stroke="none" points="4006.75,-2.5 4006.75,-40.25 4183.25,-40.25 4183.25,-2.5 4006.75,-2.5"/>
<polygon fill="none" stroke="black" points="4006.75,-2.5 4006.75,-40.25 4183.25,-40.25 4183.25,-2.5 4006.75,-2.5"/>
<text xml:space="preserve" text-anchor="start" x="4017.75" y="-16.95" font-family="Helvetica,sans-Serif" font-size="14.00">Output shape: </text>
<text xml:space="preserve" text-anchor="start" x="4107" y="-16.95" font-family="Helvetica,sans-Serif" font-weight="bold" font-size="14.00">(None, 64)</text>
</g>
<!-- 2537546152320&#45;&gt;2537546152992 -->
<g id="edge10" class="edge">
<title>2537546152320&#45;&gt;2537546152992</title>
<path fill="none" stroke="black" stroke-width="2" d="M3801.82,-42.75C3801.82,-42.75 3824.25,-42.75 3824.25,-42.75"/>
<polygon fill="black" stroke="black" stroke-width="2" points="3824.25,-46.25 3834.25,-42.75 3824.25,-39.25 3824.25,-46.25"/>
</g>
<!-- 2537546153760 -->
<g id="node12" class="node">
<title>2537546153760</title>
<polygon fill="none" stroke="black" points="4221.25,-0.5 4221.25,-85 4561.5,-85 4561.5,-0.5 4221.25,-0.5"/>
<polygon fill="black" stroke="none" points="4221.25,-0.5 4221.25,-85 4561.5,-85 4561.5,-0.5 4221.25,-0.5"/>
<polygon fill="black" stroke="none" points="4223.25,-42.25 4223.25,-83 4559.5,-83 4559.5,-42.25 4223.25,-42.25"/>
<polygon fill="none" stroke="black" points="4223.25,-42.25 4223.25,-83 4559.5,-83 4559.5,-42.25 4223.25,-42.25"/>
<text xml:space="preserve" text-anchor="start" x="4308.5" y="-57.8" font-family="Helvetica,sans-Serif" font-weight="bold" font-size="16.00" fill="white">Output_Layer</text>
<text xml:space="preserve" text-anchor="start" x="4412.75" y="-57.8" font-family="Helvetica,sans-Serif" font-size="16.00" fill="white"> (Dense)</text>
<polygon fill="white" stroke="none" points="4223.25,-2.5 4223.25,-40.25 4388.5,-40.25 4388.5,-2.5 4223.25,-2.5"/>
<polygon fill="none" stroke="black" points="4223.25,-2.5 4223.25,-40.25 4388.5,-40.25 4388.5,-2.5 4223.25,-2.5"/>
<text xml:space="preserve" text-anchor="start" x="4234.25" y="-16.95" font-family="Helvetica,sans-Serif" font-size="14.00">Input shape: </text>
<text xml:space="preserve" text-anchor="start" x="4312.25" y="-16.95" font-family="Helvetica,sans-Serif" font-weight="bold" font-size="14.00">(None, 64)</text>
<polygon fill="white" stroke="none" points="4390.5,-2.5 4390.5,-40.25 4559.5,-40.25 4559.5,-2.5 4390.5,-2.5"/>
<polygon fill="none" stroke="black" points="4390.5,-2.5 4390.5,-40.25 4559.5,-40.25 4559.5,-2.5 4390.5,-2.5"/>
<text xml:space="preserve" text-anchor="start" x="4401.5" y="-16.95" font-family="Helvetica,sans-Serif" font-size="14.00">Output shape: </text>
<text xml:space="preserve" text-anchor="start" x="4490.75" y="-16.95" font-family="Helvetica,sans-Serif" font-weight="bold" font-size="14.00">(None, 2)</text>
</g>
<!-- 2537546152992&#45;&gt;2537546153760 -->
<g id="edge11" class="edge">
<title>2537546152992&#45;&gt;2537546153760</title>
<path fill="none" stroke="black" stroke-width="2" d="M4185.53,-42.75C4185.53,-42.75 4208,-42.75 4208,-42.75"/>
<polygon fill="black" stroke="black" stroke-width="2" points="4208,-46.25 4218,-42.75 4208,-39.25 4208,-46.25"/>
</g>
</g>
</svg>
